<svg enable-background="new 0 0 32 32" height="512" viewBox="0 0 32 32" width="512" xmlns="http://www.w3.org/2000/svg"><g id="Layer_25"><path d="m29.803 10.391c-.187-.461-.714-.683-1.173-.493-.46.188-.682.713-.493 1.173.638 1.568.963 3.226.963 4.929 0 7.224-5.876 13.1-13.1 13.1s-13.1-5.876-13.1-13.1 5.876-13.1 13.1-13.1c.564 0 1.176.041 1.816.122.481.063.943-.285 1.006-.779.063-.493-.286-.943-.779-1.006-.715-.091-1.402-.137-2.043-.137-8.216 0-14.9 6.684-14.9 14.9s6.684 14.9 14.9 14.9 14.9-6.684 14.9-14.9c0-1.937-.369-3.824-1.097-5.609z" fill="#6621ba"/><path d="m24.613 9.788c.089.028.182.043.273.043.093 0 .185-.015.274-.043 1.974-.632 4.974-2.689 4.616-5.524-.173-1.371-.981-2.418-2.161-2.8-.914-.296-1.905-.135-2.729.412-.824-.547-1.815-.705-2.73-.412-1.18.382-1.988 1.429-2.161 2.801-.358 2.838 2.643 4.893 4.618 5.523zm-1.903-6.611c.125-.04.253-.06.381-.06.4 0 .806.19 1.138.546.342.365.975.365 1.316 0 .439-.471 1.007-.649 1.519-.486.505.164.844.643.929 1.313.193 1.543-1.65 2.933-3.106 3.488-1.455-.555-3.3-1.942-3.105-3.487.083-.672.422-1.15.928-1.314z" fill="#f98a17"/><g fill="#6621ba"><path d="m11.715 12.315c0 2.362 1.923 4.285 4.285 4.285s4.285-1.923 4.285-4.285-1.923-4.285-4.285-4.285-4.285 1.923-4.285 4.285zm6.769 0c0 1.37-1.114 2.484-2.484 2.484s-2.484-1.114-2.484-2.484 1.114-2.484 2.484-2.484 2.484 1.114 2.484 2.484z"/><path d="m19.44 17.734h-6.88c-1.011 0-1.933.556-2.405 1.448-.474.895-.414 1.969.177 2.841.573.841 1.431 1.415 2.416 1.617 1.062.218 2.155.33 3.252.33s2.191-.111 3.251-.329c.986-.202 1.846-.777 2.419-1.619 0 0 .021-.033.021-.034.568-.836.628-1.91.155-2.804s-1.394-1.45-2.406-1.45zm.751 3.258-.015.023c-.309.449-.766.755-1.288.861-1.883.388-3.893.388-5.779 0-.524-.107-.982-.415-1.313-.9-.195-.288-.215-.644-.052-.951.077-.147.313-.49.814-.49h6.881c.348 0 .652.184.815.49.08.148.231.536-.063.967z"/></g></g></svg>