<svg id="Capa_1" enable-background="new 0 0 512 512" height="512" viewBox="0 0 512 512" width="512" xmlns="http://www.w3.org/2000/svg"><g><g><path d="m241.341 15h30v57.333h-30z" fill="#f5f3fc"/></g><path d="m256.341 15h15v57.333h-15z" fill="#dad9ed"/><g><path d="m69.898 86.014h30v57.334h-30z" fill="#f5f3fc" transform="matrix(.707 -.707 .707 .707 -56.226 93.621)"/></g><g><path d="m43.325 130.712c-3.839 0-7.678-1.464-10.606-4.394-5.858-5.858-5.858-15.355 0-21.213l42.604-42.604c5.857-5.858 15.355-5.858 21.213 0s5.858 15.355 0 21.213l-42.604 42.604c-2.929 2.93-6.768 4.394-10.607 4.394z" fill="#566d8b"/></g><g><path d="m398.087 99.254h57.334v30h-57.334z" fill="#dad9ed" transform="matrix(.707 -.707 .707 .707 44.204 335.225)"/></g><g><path d="m468.326 130.285c-3.839 0-7.678-1.464-10.606-4.394l-42.604-42.603c-5.858-5.857-5.858-15.355 0-21.213 5.857-5.858 15.355-5.858 21.213 0l42.604 42.603c5.858 5.857 5.858 15.355 0 21.213-2.929 2.93-6.768 4.394-10.607 4.394z" fill="#3a4a5f"/></g><g><path d="m316.591 30h-120.5c-8.284 0-15-6.716-15-15s6.716-15 15-15h120.5c8.284 0 15 6.716 15 15s-6.716 15-15 15z" fill="#566d8b"/></g><path d="m316.591 0h-60.25v30h60.25c8.284 0 15-6.716 15-15s-6.716-15-15-15z" fill="#3a4a5f"/><g><path d="m256.341 512c-60.723 0-117.812-23.647-160.749-66.584s-66.584-100.026-66.584-160.749 23.647-117.811 66.584-160.749 100.026-66.584 160.749-66.584 117.812 23.646 160.749 66.584 66.584 100.026 66.584 160.749-23.647 117.812-66.584 160.749-100.026 66.584-160.749 66.584z" fill="#b274ee"/></g><path d="m417.09 445.416c42.938-42.938 66.584-100.026 66.584-160.749s-23.647-117.811-66.584-160.749-100.026-66.585-160.749-66.585v454.667c60.723 0 117.812-23.647 160.749-66.584z" fill="#925eff"/><g><path d="m256.341 448.833c-90.521 0-164.167-73.645-164.167-164.167s73.646-164.166 164.167-164.166 164.167 73.645 164.167 164.167-73.645 164.166-164.167 164.166z" fill="#f5f3fc"/></g><path d="m420.508 284.667c0-90.522-73.645-164.167-164.167-164.167v328.333c90.522 0 164.167-73.645 164.167-164.166z" fill="#dad9ed"/><g><path d="m256.341 271c-8.284 0-15-6.716-15-15v-60.25c0-8.284 6.716-15 15-15s15 6.716 15 15v60.25c0 8.284-6.716 15-15 15z" fill="#3a4a5f"/></g><path d="m271.341 256v-60.25c0-8.284-6.716-15-15-15v90.25c8.284 0 15-6.716 15-15z" fill="#2a3746"/><g><path d="m256.341 331.25c-24.882 0-45.125-20.243-45.125-45.125s20.243-45.125 45.125-45.125 45.125 20.243 45.125 45.125-20.243 45.125-45.125 45.125z" fill="#566d8b"/></g><path d="m301.466 286.125c0-24.882-20.243-45.125-45.125-45.125v90.25c24.882 0 45.125-20.243 45.125-45.125z" fill="#3a4a5f"/></g></svg>